<?xml version="1.0" encoding="UTF-8"?>
<svg xmlns="http://www.w3.org/2000/svg" xmlns:xlink="http://www.w3.org/1999/xlink" width="128pt" height="127pt" viewBox="0 0 128 127" version="1.1">
<g id="surface1">
<path style=" stroke:none;fill-rule:nonzero;fill:rgb(91.372549%,32.941176%,12.54902%);fill-opacity:1;" d="M 106.714844 63.527344 C 106.714844 86.921875 87.605469 105.882812 64.03125 105.882812 C 40.453125 105.882812 21.34375 86.921875 21.34375 63.527344 C 21.34375 40.136719 40.457031 21.175781 64.03125 21.175781 C 87.605469 21.175781 106.714844 40.136719 106.714844 63.527344 Z M 106.714844 63.527344 "/>
<path style=" stroke:none;fill-rule:nonzero;fill:rgb(100%,100%,100%);fill-opacity:1;" d="M 41.875 63.527344 C 41.875 66.535156 39.417969 68.972656 36.386719 68.972656 C 33.355469 68.972656 30.898438 66.535156 30.898438 63.527344 C 30.898438 60.523438 33.355469 58.085938 36.386719 58.085938 C 39.417969 58.085938 41.875 60.523438 41.875 63.527344 Z M 73.101562 90.007812 C 74.617188 92.609375 77.972656 93.5 80.597656 92 C 83.222656 90.496094 84.121094 87.164062 82.605469 84.558594 C 81.089844 81.957031 77.734375 81.066406 75.109375 82.570312 C 72.484375 84.074219 71.585938 87.402344 73.101562 90.007812 Z M 82.605469 42.5 C 84.121094 39.894531 83.222656 36.5625 80.597656 35.0625 C 77.972656 33.558594 74.617188 34.449219 73.101562 37.054688 C 71.585938 39.65625 72.484375 42.988281 75.109375 44.492188 C 77.734375 45.996094 81.089844 45.101562 82.605469 42.5 Z M 64.03125 48 C 72.207031 48 78.917969 54.21875 79.621094 62.152344 L 87.5625 62.03125 C 87.183594 56.136719 84.609375 50.832031 80.636719 46.925781 C 78.535156 47.730469 76.09375 47.621094 73.992188 46.414062 C 71.886719 45.207031 70.570312 43.164062 70.222656 40.953125 C 68.25 40.421875 66.171875 40.136719 64.03125 40.136719 C 60.273438 40.136719 56.722656 41.007812 53.570312 42.558594 L 57.4375 49.441406 C 59.4375 48.519531 61.675781 48 64.03125 48 Z M 48.378906 63.527344 C 48.378906 58.277344 51.007812 53.632812 55.035156 50.824219 L 50.957031 44.058594 C 46.230469 47.1875 42.714844 51.964844 41.230469 57.5625 C 42.984375 58.964844 44.113281 61.117188 44.113281 63.527344 C 44.113281 65.941406 42.984375 68.09375 41.230469 69.5 C 42.714844 75.097656 46.230469 79.871094 50.957031 83 L 55.035156 76.238281 C 51.007812 73.425781 48.378906 68.785156 48.378906 63.527344 Z M 64.03125 79.058594 C 61.675781 79.058594 59.441406 78.539062 57.4375 77.617188 L 53.570312 84.5 C 56.722656 86.054688 60.273438 86.921875 64.03125 86.921875 C 66.171875 86.921875 68.25 86.640625 70.222656 86.109375 C 70.570312 83.894531 71.886719 81.851562 73.992188 80.648438 C 76.09375 79.441406 78.535156 79.332031 80.636719 80.136719 C 84.609375 76.226562 87.183594 70.921875 87.5625 65.027344 L 79.621094 64.90625 C 78.917969 72.839844 72.207031 79.058594 64.03125 79.058594 Z M 64.03125 79.058594 "/>
</g>
</svg>
